<?xml version="1.0" encoding="UTF-8" standalone="no"?>
<!DOCTYPE svg PUBLIC "-//W3C//DTD SVG 1.1//EN" "http://www.w3.org/Graphics/SVG/1.1/DTD/svg11.dtd">
<svg version="1.1" xmlns="http://www.w3.org/2000/svg" xmlns:xlink="http://www.w3.org/1999/xlink" preserveAspectRatio="xMidYMid meet" viewBox="0 0 341 227" width="341" height="227"><defs><path d="M226.48 45.47L226.48 60.47C125.6 60.47 62.55 60.47 37.34 60.47C28.58 60.47 21.48 67.57 21.48 76.33C21.48 92.21 21.48 131.93 21.48 195.47C148.92 195.47 228.57 195.47 260.43 195.47C272.05 195.47 281.48 186.05 281.48 174.42C281.48 166.56 281.48 146.91 281.48 115.47L297.48 115.47C297.14 147.49 296.93 167.5 296.84 175.51C296.64 194.88 280.88 210.47 261.51 210.47C227.51 210.47 142.5 210.47 6.48 210.47C6.48 138.6 6.48 93.67 6.48 75.71C6.48 59.01 20.01 45.47 36.71 45.47C62.02 45.47 125.27 45.47 226.48 45.47Z" id="e9H6ksEl"></path><path d="M241.48 45.47L281.48 45.47L281.48 5.47L296.48 5.47L296.48 45.47L336.48 45.47L336.48 60.47L296.48 60.47L296.48 100.47L281.48 100.47L280.48 60.47L241.48 60.47L241.48 45.47Z" id="c87zv6ctk"></path></defs><g><g><g><use xlink:href="#e9H6ksEl" opacity="1" fill="#696969" fill-opacity="1"></use><g><use xlink:href="#e9H6ksEl" opacity="1" fill-opacity="0" stroke="#000000" stroke-width="2" stroke-opacity="1"></use></g></g><g><use xlink:href="#c87zv6ctk" opacity="1" fill="#696969" fill-opacity="1"></use><g><use xlink:href="#c87zv6ctk" opacity="1" fill-opacity="0" stroke="#000000" stroke-width="2" stroke-opacity="1"></use></g></g></g></g></svg>